<?xml version="1.0" encoding="UTF-8"?>
<!DOCTYPE svg PUBLIC "-//W3C//DTD SVG 1.1//EN" "http://www.w3.org/Graphics/SVG/1.1/DTD/svg11.dtd">
<svg xmlns="http://www.w3.org/2000/svg" version="1.1" width="316px" height="87px" style="shape-rendering:geometricPrecision; text-rendering:geometricPrecision; image-rendering:optimizeQuality; fill-rule:evenodd; clip-rule:evenodd" xmlns:xlink="http://www.w3.org/1999/xlink">
<g><path style="opacity:1" fill="#25d8fe" d="M 43.5,62.5 C 31.7868,45.5962 18.2868,29.9295 3,15.5C 2.50999,14.2068 2.34332,12.8734 2.5,11.5C 3.13234,6.6951 5.799,3.52844 10.5,2C 14.7824,1.03491 18.7824,1.70157 22.5,4C 33,14.5 43.5,25 54,35.5C 56.5055,38.8194 57.5055,42.486 57,46.5C 53.7624,52.9038 49.2624,58.2371 43.5,62.5 Z"/></g>
<g><path style="opacity:1" fill="#641d9c" d="M 80.5,1.5 C 89.6584,0.490564 93.4918,4.49056 92,13.5C 86.5751,20.1382 81.2417,20.1382 76,13.5C 74.4742,8.23886 75.9742,4.23886 80.5,1.5 Z"/></g>
<g><path style="opacity:1" fill="#5e1aff" d="M 78.5,63.5 C 77.5041,63.5858 76.6708,63.2524 76,62.5C 72.4604,55.3964 67.9604,49.0631 62.5,43.5C 61.9351,40.5791 60.7684,37.9124 59,35.5C 51.6667,28.1667 44.3333,20.8333 37,13.5C 36.1939,8.94021 38.0273,5.77354 42.5,4C 48.3621,1.69023 54.0287,2.02356 59.5,5C 69.6667,15.1667 79.8333,25.3333 90,35.5C 92.8926,40.3138 93.2259,45.3138 91,50.5C 87.3305,55.3357 83.1638,59.669 78.5,63.5 Z"/></g>
<g><path style="opacity:0.999" fill="#7bfefe" d="M 2.5,11.5 C 2.34332,12.8734 2.50999,14.2068 3,15.5C 18.2868,29.9295 31.7868,45.5962 43.5,62.5C 36.3268,70.8386 28.3268,78.3386 19.5,85C 10.5357,87.4367 4.70238,84.27 2,75.5C 1.17059,53.996 1.33726,32.6627 2.5,11.5 Z"/></g>
<g><path style="opacity:1" fill="#2d292a" d="M 202.5,26.5 C 202.108,29.7216 202.608,32.7216 204,35.5C 208.555,35.2105 213.388,34.8772 218.5,34.5C 219.48,37.0865 219.813,39.7531 219.5,42.5C 213.833,42.5 208.167,42.5 202.5,42.5C 202.5,45.5 202.5,48.5 202.5,51.5C 209.167,51.5 215.833,51.5 222.5,51.5C 222.5,53.8333 222.5,56.1667 222.5,58.5C 213.5,58.5 204.5,58.5 195.5,58.5C 195.5,45.5 195.5,32.5 195.5,19.5C 204.167,19.5 212.833,19.5 221.5,19.5C 221.5,21.5 221.5,23.5 221.5,25.5C 214.978,25.1765 208.645,25.5098 202.5,26.5 Z"/></g>
<g><path style="opacity:1" fill="#302c2d" d="M 275.5,20.5 C 275.5,23.1667 275.5,25.8333 275.5,28.5C 278.5,28.5 281.5,28.5 284.5,28.5C 284.5,30.8333 284.5,33.1667 284.5,35.5C 281.5,35.5 278.5,35.5 275.5,35.5C 275.219,40.5649 275.552,45.5649 276.5,50.5C 278.851,52.2289 281.518,52.8956 284.5,52.5C 284.5,54.5 284.5,56.5 284.5,58.5C 280.486,58.6655 276.486,58.4988 272.5,58C 269.976,56.117 268.642,53.617 268.5,50.5C 268.5,45.1667 268.5,39.8333 268.5,34.5C 266.5,34.5 264.5,34.5 262.5,34.5C 262.5,32.8333 262.5,31.1667 262.5,29.5C 264.5,29.5 266.5,29.5 268.5,29.5C 268.5,26.5 268.5,23.5 268.5,20.5C 270.833,20.5 273.167,20.5 275.5,20.5 Z"/></g>
<g><path style="opacity:1" fill="#353132" d="M 145.5,41.5 C 145.5,37.8333 145.5,34.1667 145.5,30.5C 146.096,25.5475 148.762,23.8809 153.5,25.5C 154.387,30.8149 155.054,36.1482 155.5,41.5C 159.466,40.8379 163.466,40.5045 167.5,40.5C 167.671,35.804 168.171,31.1373 169,26.5C 171.644,23.5517 174.811,22.5517 178.5,23.5C 178.722,30.7882 178.888,38.1215 179,45.5C 179.374,49.7961 180.207,53.9627 181.5,58C 179.069,61.3685 176.069,62.0351 172.5,60C 170.468,56.049 168.968,51.8823 168,47.5C 164.572,48.3958 161.072,49.0624 157.5,49.5C 158.47,53.2193 159.304,56.8859 160,60.5C 153.038,64.4874 148.704,62.4874 147,54.5C 145.925,50.23 145.425,45.8967 145.5,41.5 Z"/></g>
<g><path style="opacity:1" fill="#3a3637" d="M 144.5,30.5 C 144.54,33.8806 144.207,37.2139 143.5,40.5C 142.962,48.1146 140.628,55.1146 136.5,61.5C 134.232,62.5443 131.899,62.711 129.5,62C 126.286,59.0684 123.953,55.5684 122.5,51.5C 121.038,55.5926 118.705,59.0926 115.5,62C 110.404,63.5798 107.237,61.7465 106,56.5C 103.376,49.0039 101.542,41.3372 100.5,33.5C 101.228,27.5556 104.394,25.5556 110,27.5C 109.976,35.0516 111.143,42.3849 113.5,49.5C 116.596,45.3884 118.429,40.7217 119,35.5C 120.466,33.6751 122.299,33.1751 124.5,34C 126.536,39.2638 128.869,44.4305 131.5,49.5C 132.79,47.3435 133.624,45.0101 134,42.5C 134.333,37.8333 134.667,33.1667 135,28.5C 136.808,26.6041 138.975,26.1041 141.5,27C 143.426,27.4224 144.426,28.5891 144.5,30.5 Z"/></g>
<g><path style="opacity:1" fill="#3d393a" d="M 236.5,27.5 C 241.677,26.7031 246.177,28.0364 250,31.5C 250.483,30.552 250.649,29.552 250.5,28.5C 253.167,28.5 255.833,28.5 258.5,28.5C 258.5,38.5 258.5,48.5 258.5,58.5C 255.833,58.5 253.167,58.5 250.5,58.5C 250.649,57.448 250.483,56.448 250,55.5C 244.28,60.254 238.114,60.754 231.5,57C 223.891,48.617 223.557,39.9504 230.5,31C 232.432,29.5415 234.432,28.3748 236.5,27.5 Z M 240.5,34.5 C 248.707,35.9142 251.54,40.5809 249,48.5C 241.672,54.6983 236.506,53.1983 233.5,44C 233.813,39.2062 236.146,36.0395 240.5,34.5 Z"/></g>
<g><path style="opacity:1" fill="#3f3b3c" d="M 295.5,27.5 C 300.412,27.0631 305.078,27.8964 309.5,30C 311.202,32.2354 312.202,34.7354 312.5,37.5C 308.06,37.7236 304.06,36.7236 300.5,34.5C 296.834,34.369 295.834,35.869 297.5,39C 302.045,39.7071 306.378,41.0404 310.5,43C 315.417,49.9316 314.083,55.2649 306.5,59C 300.903,60.0909 295.57,59.4242 290.5,57C 288.503,54.5084 287.503,51.675 287.5,48.5C 289.857,48.3367 292.19,48.5034 294.5,49C 297.091,53.6895 300.591,54.5228 305,51.5C 305.684,50.2161 305.517,49.0495 304.5,48C 299.987,47.1945 295.654,45.8612 291.5,44C 286.629,36.8819 287.962,31.3819 295.5,27.5 Z"/></g>
<g><path style="opacity:0.302" fill="#bcbaba" d="M 202.5,26.5 C 208.645,25.5098 214.978,25.1765 221.5,25.5C 221.5,23.5 221.5,21.5 221.5,19.5C 212.833,19.5 204.167,19.5 195.5,19.5C 195.5,32.5 195.5,45.5 195.5,58.5C 194.504,45.3438 194.171,32.0105 194.5,18.5C 203.833,18.5 213.167,18.5 222.5,18.5C 222.5,21.1667 222.5,23.8333 222.5,26.5C 215.833,26.5 209.167,26.5 202.5,26.5 Z"/></g>
<g><path style="opacity:0.258" fill="#bdbcbc" d="M 275.5,20.5 C 273.167,20.5 270.833,20.5 268.5,20.5C 268.5,23.5 268.5,26.5 268.5,29.5C 266.5,29.5 264.5,29.5 262.5,29.5C 262.5,31.1667 262.5,32.8333 262.5,34.5C 264.5,34.5 266.5,34.5 268.5,34.5C 268.5,39.8333 268.5,45.1667 268.5,50.5C 267.513,45.6946 267.179,40.6946 267.5,35.5C 265.5,35.5 263.5,35.5 261.5,35.5C 261.5,33.1667 261.5,30.8333 261.5,28.5C 263.5,28.5 265.5,28.5 267.5,28.5C 267.5,25.5 267.5,22.5 267.5,19.5C 270.385,19.1936 273.052,19.5269 275.5,20.5 Z"/></g>
<g><path style="opacity:0.141" fill="#d5d5d5" d="M 144.5,30.5 C 144.833,30.5 145.167,30.5 145.5,30.5C 145.5,34.1667 145.5,37.8333 145.5,41.5C 144.833,41.1667 144.167,40.8333 143.5,40.5C 144.207,37.2139 144.54,33.8806 144.5,30.5 Z"/></g>
<g><path style="opacity:1" fill="#2d9aff" d="M 62.5,43.5 C 67.9604,49.0631 72.4604,55.3964 76,62.5C 76.6708,63.2524 77.5041,63.5858 78.5,63.5C 72.7028,69.7981 66.7028,75.9648 60.5,82C 54.4519,86.258 48.1186,86.5913 41.5,83C 34.68,78.079 35.0133,73.579 42.5,69.5C 49.2249,63.7772 55.2249,57.4439 60.5,50.5C 61.1667,48.1667 61.8333,45.8333 62.5,43.5 Z"/></g>
<g><path style="opacity:0.737" fill="#a2d2fe" d="M 60.5,50.5 C 55.2249,57.4439 49.2249,63.7772 42.5,69.5C 47.7751,62.5561 53.7751,56.2228 60.5,50.5 Z"/></g>
</svg>
